<svg xmlns="http://www.w3.org/2000/svg" viewBox="0 0 1200 300" preserveAspectRatio="none"><defs><linearGradient id="bg" x1="0" x2="1" y1="0" y2="1"><stop offset="0" stop-color="#ffe6cc"/><stop offset="0.5" stop-color="#fff6ea"/><stop offset="1" stop-color="#e9fff2"/></linearGradient></defs><rect width="1200" height="300" fill="url(#bg)"/><g fill="#ffd66b" opacity="0.6"><polygon points="100,60 110,80 130,85 115,98 120,118 100,108 80,118 85,98 70,85 90,80"/></g><path d="M0 240 Q 300 200 600 240 T 1200 240 V 300 H 0 Z" fill="#e9fff2"/><g transform="translate(520,160) scale(1.2)" fill="#8fd3a9" opacity="0.9"><rect x="-50" y="70" width="100" height="16" rx="8"/><path d="M0,0 c40,0 60,30 60,60 c0,25 -15,40 -60,40 c-45,0 -60,-15 -60,-40 c0,-30 20,-60 60,-60 z"/><circle cx="0" cy="-18" r="20"/><path d="M-8,40 c4,-6 8,-6 12,0 c-2,10 -10,10 -12,0 z"/></g><g transform="translate(210,200)" fill="#ffbd80" opacity="0.9"><path d="M0,60 A60,60 0 0 1 120,60 L120,80 L0,80 Z"/><rect x="0" y="80" width="120" height="10" rx="5"/></g><g fill="#8fd3a9" opacity="0.5"><ellipse cx="220" cy="250" rx="35" ry="8"/><ellipse cx="980" cy="245" rx="40" ry="10"/></g></svg>